<svg version="1.1" class="clearos-svg clearfoundation app-vendor-clearfoundation app-free app-category-system app-sub-category-account-manager" viewBox="0 0 400 400" preserveAspectRatio="xMinYMin" xmlns="http://www.w3.org/2000/svg" xmlns:xlink= "http://www.w3.org/1999/xlink">
<path fill="#AA0707" d="M91.666,184.647"/>
<path fill="#AA0707" d="M123.245,247.805"/>
<path fill="#AA0707" d="M91.666,184.647"/>
<path fill="#AA0707" d="M123.245,247.805"/>
<g>
	<path fill="#686868" d="M376.925,331.347L376.925,331.347H23.074c-9.143,0-16.559,5.848-16.559,13.094v39.865
		c0,7.245,7.417,13.093,16.559,13.093h353.851c9.144,0,16.56-5.848,16.56-13.093V344.47
		C393.483,337.241,386.067,331.347,376.925,331.347z"/>
	<path fill="#686868" d="M203.622,32.727c79.561,0,144.087,68.352,144.553,152.896c15.722-0.257,25.269-0.505,25.269-0.895
		c0.03-100.59-76.624-182.126-171.189-182.126c-94.572,0-171.219,81.552-171.219,182.127c0,0.389,10.666,0.668,28.019,0.925
		C59.536,101.108,124.03,32.727,203.622,32.727z"/>
	<path fill="#686868" d="M108.318,245.692v7.99h18.2c2.037-2.675,5.092-4.479,8.707-4.479c3.63,0,6.686,1.804,8.723,4.479h21.348
		c2.045-2.675,5.1-4.479,8.73-4.479s6.686,1.804,8.723,4.479h14.172c2.037-2.675,5.107-4.479,8.738-4.479
		c3.646,0,6.688,1.804,8.723,4.479h13.465c2.021-2.675,5.116-4.479,8.709-4.479c3.621,0,6.653,1.804,8.721,4.479h27.07
		c2.067-2.675,5.131-4.479,8.738-4.479s6.686,1.804,8.738,4.479h19.886c2.037-2.675,5.115-4.479,8.707-4.479
		c3.623,0,6.687,1.804,8.707,4.479h20.664c2.021-2.675,5.069-4.479,8.676-4.479c3.623,0,6.688,1.804,8.707,4.479h11.708
		c9.127,0,16.562-5.877,16.562-13.121v-4.729H121.566C114.258,235.865,108.318,240.25,108.318,245.692z"/>
	<path fill="#686868" d="M376.925,187.643v-0.047H23.074c-9.143,0-16.559,5.847-16.559,13.106v39.857
		c0,7.244,7.417,13.121,16.559,13.121h75.845v-11.752c0-6.795,7.424-12.281,16.56-12.281h278.003v-28.883
		C393.483,193.473,386.067,187.643,376.925,187.643z"/>
	<path fill="#686868" d="M376.925,259.468h-11.692c-2.021,2.676-5.084,4.479-8.707,4.479c-3.606,0-6.653-1.806-8.677-4.479h-20.68
		c-2.021,2.676-5.1,4.479-8.691,4.479c-3.622,0-6.7-1.806-8.706-4.479h-19.902c-2.036,2.676-5.115,4.479-8.724,4.479
		c-3.638,0-6.701-1.806-8.736-4.479h-27.086c-2.053,2.676-5.115,4.479-8.738,4.479c-3.576,0-6.654-1.806-8.676-4.479h-13.543
		c-2.006,2.676-5.061,4.479-8.676,4.479c-3.614,0-6.701-1.806-8.723-4.479h-14.173c-2.037,2.676-5.108,4.479-8.707,4.479
		c-3.631,0-6.687-1.806-8.723-4.479h-21.356c-2.037,2.676-5.092,4.479-8.706,4.479c-3.646,0-6.718-1.806-8.77-4.479h-18.215v7.961
		c0,5.441,5.924,9.891,13.248,9.891h271.917v-4.729C393.483,265.345,386.067,259.468,376.925,259.468z"/>
	<path fill="#686868" d="M98.919,271.222v-11.754H23.074c-9.143,0-16.559,5.848-16.559,13.123v39.866
		c0,7.245,7.417,13.092,16.559,13.092h353.851v-0.03c9.144,0,16.56-5.848,16.56-13.123v-28.89H115.463
		C106.345,283.506,98.919,278.002,98.919,271.222z"/>
</g>
</svg>
